<?xml version="1.0" encoding="utf-8"?>
<!-- Generator: Adobe Illustrator 23.0.3, SVG Export Plug-In . SVG Version: 6.00 Build 0)  -->
<svg version="1.1" id="Layer_1" xmlns="http://www.w3.org/2000/svg" xmlns:xlink="http://www.w3.org/1999/xlink" x="0px" y="0px"
	 viewBox="0 0 133.3 100" style="enable-background:new 0 0 133.3 100;" xml:space="preserve">
<style type="text/css">
	.st0{fill:#73AC50;}
	.st1{fill:#B12433;}
	.st2{fill:#28A2DC;}
</style>
<title>Historic England</title>
<polyline class="st0" points="0,0 0,33.3 16.8,25 33.4,33.3 50.1,25 66.7,33.3 83.4,25 100,33.3 100,0 0,0 "/>
<path class="st1" d="M38.1,64.6c-2.3,2.6-6.2,2.8-8.8,0.5c-0.2-0.1-0.3-0.3-0.5-0.5l-1.2-1.4c-5.4-6-14.6-6.5-20.6-1.1
	c-0.4,0.3-0.7,0.7-1.1,1.1l-1.2,1.4c-1.2,1.4-3,2.1-4.8,2.1v-25l16.8-8.3l16.5,8.4l16.7-8.4l16.6,8.3l16.6-8.3l16.6,8.3v25
	c-1.7,0-3.3-0.8-4.5-2.1l-1.2-1.4c-5.4-6-14.6-6.5-20.6-1.1c-0.4,0.3-0.7,0.7-1.1,1.1l-1.2,1.4c-2.3,2.6-6.2,2.8-8.8,0.5
	c-0.2-0.1-0.3-0.3-0.5-0.5L61,63.2c-5.4-6-14.6-6.5-20.6-1.1c-0.4,0.3-0.7,0.7-1.1,1.1L38.1,64.6"/>
<path class="st2" d="M100,98.9c-3.3,0.7-6.6,1.1-10,1.1c-1.8,0-3.3-1.5-3.3-3.3c0,0,0,0,0-0.1c0-1.9,1.5-3.3,3.4-3.3c0,0,0,0,0,0
	c0.1,0,0.3,0,0.4,0c0.1,0,0.2-0.1,0.2-0.2c0,0,0,0,0,0c0-0.1,0-0.1-0.1-0.1c-3.3-1.5-7.1-1.3-10.2,0.5C73.1,97.8,65,100,56.6,100
	c-1.8,0-3.3-1.5-3.3-3.3c0,0,0,0,0,0c0-1.9,1.5-3.3,3.4-3.3c0,0,0,0,0,0c0.1,0,0.3,0,0.4,0c0.1,0,0.2-0.1,0.2-0.2c0,0,0,0,0,0
	c0-0.1,0-0.1-0.1-0.1c-3.3-1.5-7.1-1.3-10.2,0.5c-7.2,4.2-15.4,6.5-23.7,6.5c-1.8,0-3.3-1.5-3.3-3.3c0,0,0,0,0,0
	c0-1.9,1.5-3.3,3.4-3.3c0,0,0,0,0,0c0.1,0,0.3,0,0.4,0c0.1,0,0.2-0.1,0.2-0.2l0,0c0-0.1,0-0.1-0.1-0.1c-3.3-1.5-7.1-1.3-10.2,0.5
	C9.4,96,4.8,97.8,0,98.8V75c4.2,0.1,8.2-1.7,11-4.8l1.2-1.4c2.3-2.6,6.2-2.8,8.8-0.5c0.2,0.2,0.3,0.3,0.5,0.5l1.2,1.4
	c5.4,6,14.6,6.5,20.6,1.1c0.4-0.3,0.7-0.7,1.1-1.1l1.2-1.4c2.3-2.6,6.2-2.8,8.8-0.5c0.2,0.2,0.3,0.3,0.5,0.5l1.2,1.4
	c5.4,6,14.6,6.5,20.6,1.1c0.4-0.3,0.7-0.7,1.1-1.1l1.2-1.4c2.3-2.6,6.2-2.8,8.8-0.5c0.2,0.2,0.3,0.3,0.5,0.5l1.2,1.4
	c2.7,3,6.6,4.8,10.6,4.8L100,98.9"/>
<polyline class="st0" points="33.3,0 33.3,33.3 50.1,25 66.7,33.3 83.4,25 100,33.3 116.7,25 133.3,33.3 133.3,0 33.3,0 "/>
<path class="st1" d="M71.4,64.6c-2.3,2.6-6.2,2.8-8.8,0.5c-0.2-0.1-0.3-0.3-0.5-0.5L61,63.1c-5.4-6-14.6-6.5-20.6-1.1
	c-0.4,0.3-0.7,0.7-1.1,1.1l-1.2,1.4c-1.2,1.4-3,2.1-4.8,2.1v-25l16.8-8.3l16.5,8.4l16.7-8.4l16.6,8.3l16.6-8.3l16.6,8.3v25
	c-1.7,0-3.3-0.8-4.5-2.1l-1.2-1.4c-5.4-6-14.6-6.5-20.6-1.1c-0.4,0.3-0.7,0.7-1.1,1.1l-1.2,1.4c-2.3,2.6-6.2,2.8-8.8,0.5
	c-0.2-0.1-0.3-0.3-0.5-0.5l-1.2-1.4c-5.4-6-14.6-6.5-20.6-1.1c-0.4,0.3-0.7,0.7-1.1,1.1L71.4,64.6"/>
<path class="st2" d="M133.3,98.9c-3.3,0.7-6.6,1.1-10,1.1c-1.8,0-3.3-1.5-3.3-3.3c0,0,0,0,0-0.1c0-1.9,1.5-3.3,3.4-3.3c0,0,0,0,0,0
	c0.1,0,0.3,0,0.4,0c0.1,0,0.2-0.1,0.2-0.2c0,0,0,0,0,0c0-0.1,0-0.1-0.1-0.1c-3.3-1.5-7.1-1.3-10.2,0.5c-7.2,4.2-15.4,6.5-23.7,6.5
	c-1.8,0-3.3-1.5-3.3-3.3c0,0,0,0,0,0c0-1.9,1.5-3.3,3.4-3.3c0,0,0,0,0,0c0.1,0,0.3,0,0.4,0c0.1,0,0.2-0.1,0.2-0.2c0,0,0,0,0,0
	c0-0.1,0-0.1-0.1-0.1c-3.3-1.5-7.1-1.3-10.2,0.5c-7.2,4.2-15.4,6.5-23.7,6.5c-1.8,0-3.3-1.5-3.3-3.3c0,0,0,0,0,0
	c0-1.9,1.5-3.3,3.4-3.3c0,0,0,0,0,0c0.1,0,0.3,0,0.4,0c0.1,0,0.2-0.1,0.2-0.2l0,0c0-0.1,0-0.1-0.1-0.1c-3.3-1.5-7.1-1.3-10.2,0.5
	c-4.2,2.5-8.9,4.3-13.7,5.4V75c4.2,0.1,8.2-1.7,11-4.8l1.2-1.4c2.3-2.6,6.2-2.8,8.8-0.5c0.2,0.2,0.3,0.3,0.5,0.5l1.2,1.4
	c5.4,6,14.6,6.5,20.6,1.1c0.4-0.3,0.7-0.7,1.1-1.1l1.2-1.4c2.3-2.6,6.2-2.8,8.8-0.5c0.2,0.2,0.3,0.3,0.5,0.5l1.2,1.4
	c5.4,6,14.6,6.5,20.6,1.1c0.4-0.3,0.7-0.7,1.1-1.1l1.2-1.4c2.3-2.6,6.2-2.8,8.8-0.5c0.2,0.2,0.3,0.3,0.5,0.5l1.2,1.4
	c2.7,3,6.6,4.8,10.6,4.8L133.3,98.9"/>
</svg>
